PathFileType	4	(X/Y/Z)	/Users/itak/Documents/Research/Walk-IL/dataset/trc/00044_00004.trc
DataRate	CameraRate	NumFrames	NumMarkers	Units	OrigDataRate	OrigDataStartFrame	OrigNumFrames
100.000000	100.000000	4	53	mm	100.000000	257	514
Frame#	Time	RPSI			LPSI			L3			STRN			T10			C7			CLAV			RBAK			LBAK			LSHO			LUPA			LAEL			LAOL			LWTS			LWPS			LFRA			LIFD			LHPS			LHTS			RSHO			RUPA			RAEL			RAOL			RWTS			RWPS			RFRA			RIFD			RHTS			RHPS			RBHD			LFHD			RFHD			LBHD			LHIP			RHIP			RASI			LASI			LKNE			LTHI			LANK			LTIP			LTOE			LMT1			LMT5			LHEE			RKNE			RTHI			RANK			RTIP			RTOE			RMT1			RMT5			RHEE			
		X1	Y1	Z1	X2	Y2	Z2	X3	Y3	Z3	X4	Y4	Z4	X5	Y5	Z5	X6	Y6	Z6	X7	Y7	Z7	X8	Y8	Z8	X9	Y9	Z9	X10	Y10	Z10	X11	Y11	Z11	X12	Y12	Z12	X13	Y13	Z13	X14	Y14	Z14	X15	Y15	Z15	X16	Y16	Z16	X17	Y17	Z17	X18	Y18	Z18	X19	Y19	Z19	X20	Y20	Z20	X21	Y21	Z21	X22	Y22	Z22	X23	Y23	Z23	X24	Y24	Z24	X25	Y25	Z25	X26	Y26	Z26	X27	Y27	Z27	X28	Y28	Z28	X29	Y29	Z29	X30	Y30	Z30	X31	Y31	Z31	X32	Y32	Z32	X33	Y33	Z33	X34	Y34	Z34	X35	Y35	Z35	X36	Y36	Z36	X37	Y37	Z37	X38	Y38	Z38	X39	Y39	Z39	X40	Y40	Z40	X41	Y41	Z41	X42	Y42	Z42	X43	Y43	Z43	X44	Y44	Z44	X45	Y45	Z45	X46	Y46	Z46	X47	Y47	Z47	X48	Y48	Z48	X49	Y49	Z49	X50	Y50	Z50	X51	Y51	Z51	X52	Y52	Z52	X53	Y53	Z53	

258	2.57	-668.9490966796875	1066.41943359375	212.498779296875	-624.4360961914062	1064.631591796875	55.70183944702148	-647.9154663085938	1124.374145507812	126.1706008911133	-432.5082702636719	1311.6064453125	210.3503570556641	-664.7982177734375	1268.71484375	117.9887847900391	-608.4114379882812	1534.31201171875	131.5229949951172	-467.2134399414062	1438.910278320312	194.8466339111328	-688.950439453125	1397.226928710938	183.3143005371094	-589.4629516601562	1496.641723632812	33.8287467956543	-467.4392700195312	1502.466918945312	4.140770435333252	-472.8696899414062	1379.4326171875	-84.02751922607422	-476.3052368164062	1164.682250976562	-120.4846115112305	-558.0108642578125	1151.85546875	-55.27623748779297	-409.3847351074219	912.2210693359375	-44.02431488037109	-467.6830749511719	897.6246948242188	-109.4741134643555	-461.84375	1049.953125	-126.026725769043	-385.9313659667969	728.5657348632812	-19.88717651367188	-433.7850952148438	808.6689453125	-98.96279907226562	-382.7034301757812	819.6830444335938	-50.59255599975586	-606.7133178710938	1514.817138671875	322.5330810546875	-647.8900146484375	1444.38818359375	380.6884765625	-693.8121948242188	1175.296752929688	384.0533752441406	-655.2646484375	1149.374633789062	295.6327819824219	-520.858642578125	941.5601196289062	409.3263244628906	-600.8385009765625	911.4718627929688	446.4583129882812	-679.8017578125	1097.615112304688	404.4040832519531	-463.4499816894531	765.281494140625	408.0356750488281	-474.3014526367188	841.5706176757812	438.9277648925781	-543.8507080078125	821.9421997070312	465.7857666015625	-504.0214233398438	1714.791625976562	98.94137573242188	-471.1539306640625	1725.144653320312	314.7746887207031	-400.2501831054688	1732.864379882812	247.0998077392578	-603.114013671875	1701.715209960938	203.11376953125	-497.4667358398438	962.3016357421875	-24.52697944641113	-593.9186401367188	941.6600952148438	336.0726928710938	-475.4355163574219	979.8511962890625	298.5456848144531	-411.8915710449219	1007.562194824219	74.31387329101562	-352.8651428222656	528.979248046875	50.05797958374023	-401.1131591796875	662.5963134765625	0.6521902680397034	-606.6190795898438	110.4676208496094	-94.71165466308594	-493.6655578613281	330.6763305664062	-44.31158828735352	-420.3896789550781	47.63481903076172	12.30984306335449	-478.6834411621094	64.14406585693359	16.80169677734375	-486.8255920410156	79.96038055419922	-87.67725372314453	-682.283935546875	129.3706512451172	-58.41303253173828	-552.712646484375	509.9617004394531	249.1595611572266	-566.1875610351562	772.2445068359375	325.6744689941406	-648.6328125	41.95199966430664	119.3613739013672	-573.6063842773438	387.5047607421875	222.3484191894531	-420.3584594726562	43.34274291992188	179.1042327880859	-465.7694702148438	48.88570404052734	125.2979049682617	-524.30517578125	41.46282196044922	202.3556213378906	-679.580810546875	44.38530349731445	55.88568115234375	
259	2.58	-662.700927734375	1066.263305664062	213.8191070556641	-616.3346557617188	1064.46826171875	57.5457763671875	-640.6708984375	1123.959350585938	127.7388763427734	-426.5020751953125	1311.657348632812	213.587158203125	-657.8229370117188	1268.269165039062	119.2211303710938	-602.0393676757812	1533.995849609375	132.772705078125	-461.2471618652344	1438.884521484375	197.4783325195312	-682.7933959960938	1396.87451171875	184.1569519042969	-582.3129272460938	1496.095092773438	35.32789611816406	-460.0961303710938	1502.0283203125	6.555947303771973	-464.7524719238281	1378.79931640625	-81.34915924072266	-467.6733093261719	1164.012084960938	-117.4374008178711	-549.6398315429688	1151.111083984375	-52.5457878112793	-400.7276916503906	911.75830078125	-40.4128303527832	-458.6215515136719	896.9889526367188	-105.9754409790039	-452.9928588867188	1049.255737304688	-122.7752227783203	-376.8723754882812	728.3150024414062	-15.84532737731934	-424.7068176269531	808.0791015625	-95.22126770019531	-373.7730712890625	819.2626342773438	-46.68328475952148	-601.9570922851562	1514.950927734375	323.7926025390625	-643.5504150390625	1444.604858398438	381.7349548339844	-689.1871337890625	1175.420776367188	385.22802734375	-649.7898559570312	1149.414428710938	297.2669677734375	-515.4521484375	942.3990478515625	412.1965026855469	-595.4974975585938	912.0692749023438	448.8978576660156	-675.0087890625	1097.789184570312	405.8876037597656	-457.2291564941406	766.3241577148438	411.65771484375	-468.4872131347656	842.8042602539062	442.3382568359375	-538.1702880859375	822.8161010742188	468.7613830566406	-496.8024291992188	1714.81884765625	101.1510467529297	-465.9897766113281	1724.81494140625	317.2691955566406	-394.3506469726562	1732.364501953125	250.3190002441406	-596.9458618164062	1701.96728515625	204.3467712402344	-488.1342468261719	962.4295654296875	-21.09584808349609	-589.4712524414062	941.2732543945312	338.3206787109375	-470.4089050292969	979.4876708984375	302.3442077636719	-404.1451110839844	1007.580993652344	79.03444671630859	-340.4316711425781	531.2518310546875	58.33265686035156	-389.0829772949219	663.7159423828125	6.682731151580811	-576.1029052734375	103.5378494262695	-88.72360229492188	-472.2966918945312	328.0670776367188	-37.85994720458984	-390.2765808105469	48.65949249267578	23.79117584228516	-449.23046875	63.14327621459961	26.58559417724609	-455.3920288085938	77.70224761962891	-78.19911956787109	-653.3740844726562	119.9086380004883	-54.59248733520508	-552.0850830078125	509.3360290527344	250.0334167480469	-562.756591796875	771.6382446289062	327.1539001464844	-648.6384887695312	42.04769134521484	119.3097686767578	-573.2951049804688	387.3827514648438	222.7250213623047	-420.3835754394531	43.33372116088867	179.1448822021484	-465.783447265625	48.89245223999023	125.3563003540039	-524.3206787109375	41.4320068359375	202.4045715332031	-679.5328369140625	44.52350997924805	55.84326553344727	
260	2.59	-656.4166870117188	1066.011108398438	215.1662445068359	-608.2286987304688	1064.202514648438	59.42562484741211	-633.406982421875	1123.459838867188	129.3326873779297	-420.4887390136719	1311.59521484375	216.8268890380859	-650.8305053710938	1267.73388671875	120.4579925537109	-595.6149291992188	1533.584106445312	134.0301818847656	-455.2515258789062	1438.747314453125	200.1247406005859	-676.5964965820312	1396.4326171875	185.0022125244141	-575.1143188476562	1495.453369140625	36.84228897094727	-452.6961059570312	1501.485107421875	8.991718292236328	-456.6168518066406	1378.056640625	-78.6417236328125	-459.0461120605469	1163.234497070312	-114.341423034668	-541.2299194335938	1150.271240234375	-49.72837066650391	-392.0705261230469	911.1826782226562	-36.74478149414062	-449.5971984863281	896.2398071289062	-102.4157180786133	-444.20458984375	1048.457641601562	-119.4100952148438	-367.933837890625	727.9257202148438	-11.79311275482178	-415.7071838378906	807.3726196289062	-91.44264984130859	-364.8990478515625	818.7205810546875	-42.75657272338867	-597.150146484375	1514.97802734375	325.0494995117188	-639.1851196289062	1444.717041015625	382.7604675292969	-684.5868530273438	1175.452758789062	386.362548828125	-644.2777709960938	1149.3583984375	298.8976135253906	-510.2278442382812	943.0534057617188	415.0984191894531	-590.36181640625	912.5292358398438	451.3224792480469	-670.2600708007812	1097.871459960938	407.3457946777344	-451.2948303222656	767.1354370117188	415.31201171875	-462.9014282226562	843.8024291992188	445.7557067871094	-532.7747802734375	823.5155639648438	471.7325439453125	-489.5844116210938	1714.728515625	103.3568801879883	-460.776611328125	1724.40283203125	319.7492370605469	-388.44091796875	1731.79638671875	253.5146331787109	-590.7490234375	1702.091064453125	205.5961456298828	-478.8650207519531	962.432373046875	-17.63809394836426	-584.9771118164062	940.8240356445312	340.5705871582031	-465.3221435546875	979.0386962890625	306.1180114746094	-396.3899536132812	1007.476501464844	83.7425537109375	-328.2649230957031	533.4227294921875	66.56576538085938	-377.2718811035156	664.7575073242188	12.7099437713623	-545.5400390625	97.07291412353516	-81.85917663574219	-450.9439392089844	325.5899963378906	-31.00069046020508	-360.7796630859375	49.90072631835938	36.24914932250977	-420.2536010742188	62.45157623291016	37.28662109375	-424.232177734375	75.77083587646484	-67.73774719238281	-624.2785034179688	110.9987335205078	-50.01751708984375	-551.3253173828125	508.6809387207031	250.9289245605469	-559.263916015625	771.006591796875	328.6195678710938	-648.6515502929688	42.16056060791016	119.2459487915039	-572.8541870117188	387.2236328125	223.1260375976562	-420.4034118652344	43.31833267211914	179.1800689697266	-465.7743225097656	48.88960647583008	125.4105453491211	-524.3261108398438	41.39887619018555	202.4510345458984	-679.5584716796875	44.71798706054688	55.76790618896484	
261	2.6	-650.0944213867188	1065.654174804688	216.5476531982422	-600.134765625	1063.82666015625	61.34177780151367	-626.1293334960938	1122.8720703125	130.9570770263672	-414.4619140625	1311.417358398438	220.0770721435547	-643.823486328125	1267.110717773438	121.7074127197266	-589.1307983398438	1533.07763671875	135.2997894287109	-449.2179565429688	1438.495483398438	202.7891540527344	-670.3564453125	1395.901977539062	185.8561096191406	-567.8545532226562	1494.71630859375	38.38029098510742	-445.2288208007812	1500.83251953125	11.45866680145264	-448.4472351074219	1377.202880859375	-75.89755249023438	-450.4216918945312	1162.348022460938	-111.1992263793945	-532.7833862304688	1149.335571289062	-46.83691787719727	-383.4031677246094	910.4949951171875	-33.01190948486328	-440.6242065429688	895.375732421875	-98.80719757080078	-435.4725646972656	1047.567626953125	-115.9435119628906	-359.12744140625	727.376220703125	-7.719076156616211	-406.77099609375	806.5519409179688	-87.62459564208984	-356.0797729492188	818.0552978515625	-38.80421829223633	-592.283447265625	1514.894775390625	326.3111267089844	-634.7831420898438	1444.722534179688	383.7733154296875	-679.984375	1175.389892578125	387.4737854003906	-638.7406616210938	1149.207397460938	300.5135803222656	-505.1766662597656	943.522705078125	418.0358276367188	-585.418701171875	912.8480224609375	453.7314147949219	-665.5469970703125	1097.858520507812	408.7821655273438	-445.6365661621094	767.7239379882812	418.9885559082031	-457.5387268066406	844.5567016601562	449.1618957519531	-527.6497192382812	824.0377197265625	474.6968078613281	-482.3619384765625	1714.519165039062	105.559928894043	-455.5046997070312	1723.907592773438	322.2170104980469	-382.5177001953125	1731.1572265625	256.6845092773438	-584.511962890625	1702.08203125	206.8664703369141	-469.6649169921875	962.3141479492188	-14.16444492340088	-580.418701171875	940.3062744140625	342.8201904296875	-460.1554870605469	978.5089111328125	309.8675231933594	-388.6366271972656	1007.255676269531	88.41558074951172	-316.3532104492188	535.4803466796875	74.69718170166016	-365.6708984375	665.7152099609375	18.72145652770996	-515.0072021484375	91.07180786132812	-74.12245178222656	-429.6470642089844	323.2557373046875	-23.74756813049316	-332.007568359375	51.30300903320312	49.70861434936523	-391.8702392578125	62.02906799316406	48.91475296020508	-393.4230041503906	74.11663818359375	-56.27556991577148	-595.0842895507812	102.6821899414062	-44.70565032958984	-550.3812866210938	507.9945983886719	251.8647003173828	-555.7119750976562	770.3434448242188	330.0955810546875	-648.6671752929688	42.29150009155273	119.1697158813477	-572.2415771484375	387.0170593261719	223.5658111572266	-420.4148864746094	43.2961311340332	179.2117462158203	-465.7380065917969	48.87508392333984	125.4598617553711	-524.3195190429688	41.36339950561523	202.493408203125	-679.6364135742188	44.96385955810547	55.66678237915039	
